<mxfile host="app.diagrams.net" modified="2021-06-25T05:46:03.802Z" agent="5.0 (Windows NT 10.0; WOW64) AppleWebKit/537.36 (KHTML, like Gecko) Chrome/86.0.4240.183 Safari/537.36" etag="eImkOL6dT8FR2wM_wEWY" version="14.8.1" type="github">
  <diagram id="W9j5iGakG56UV1hYJTq1" name="Page-1">
    <mxGraphModel dx="1038" dy="1717" grid="1" gridSize="10" guides="1" tooltips="1" connect="1" arrows="1" fold="1" page="1" pageScale="1" pageWidth="827" pageHeight="1169" math="0" shadow="0">
      <root>
        <mxCell id="0" />
        <mxCell id="1" parent="0" />
        <mxCell id="qZr8qlwzeo4GP_28_jAG-1" value="" style="ellipse;whiteSpace=wrap;html=1;" vertex="1" parent="1">
          <mxGeometry x="40" y="-320" width="120" height="80" as="geometry" />
        </mxCell>
        <mxCell id="qZr8qlwzeo4GP_28_jAG-2" value="" style="shape=parallelogram;perimeter=parallelogramPerimeter;whiteSpace=wrap;html=1;fixedSize=1;" vertex="1" parent="1">
          <mxGeometry x="260" y="-310" width="120" height="60" as="geometry" />
        </mxCell>
        <mxCell id="qZr8qlwzeo4GP_28_jAG-3" value="" style="shape=document;whiteSpace=wrap;html=1;boundedLbl=1;" vertex="1" parent="1">
          <mxGeometry x="310" y="-170" width="120" height="80" as="geometry" />
        </mxCell>
        <mxCell id="qZr8qlwzeo4GP_28_jAG-4" value="Horizontal Container" style="swimlane;horizontal=0;" vertex="1" parent="1">
          <mxGeometry x="290" y="-170" width="200" height="200" as="geometry" />
        </mxCell>
      </root>
    </mxGraphModel>
  </diagram>
</mxfile>
